Coordinates
version=1
nRows=7
nColumns=40
inDegrees=yes

Units are S.I. units (second, meters, Newtons, ...)
If the header above contains a line with 'inDegrees', this indicates whether rotational values are in degrees (yes) or radians (no).

endheader
time	pelvis_tilt	pelvis_list	pelvis_rotation	pelvis_tx	pelvis_ty	pelvis_tz	hip_flexion_r	hip_adduction_r	hip_rotation_r	knee_angle_r	knee_angle_r_beta	ankle_angle_r	subtalar_angle_r	mtp_angle_r	hip_flexion_l	hip_adduction_l	hip_rotation_l	knee_angle_l	knee_angle_l_beta	ankle_angle_l	subtalar_angle_l	mtp_angle_l	lumbar_extension	lumbar_bending	lumbar_rotation	arm_flex_r	arm_add_r	arm_rot_r	elbow_flex_r	pro_sup_r	wrist_flex_r	wrist_dev_r	arm_flex_l	arm_add_l	arm_rot_l	elbow_flex_l	pro_sup_l	wrist_flex_l	wrist_dev_l
      3.09500000	    -36.68954027	      3.08411828	      5.40027910	     -0.43459633	      0.61125929	     -0.91439664	    101.92186048	    -19.78403627	     11.63588151	    103.80122556	      1.81167315	     39.39746500	      0.00000000	      0.00000000	    103.09658047	    -10.17717869	      1.84030045	    100.10562672	      1.74717279	     33.27626545	      0.00000000	      0.00000000	    -33.35877518	     -2.93887004	     -0.77805728	    -32.26513478	    -55.10579306	     25.47576785	    105.92573009	     88.13137231	      0.00000000	      0.00000000	      7.38422598	    -66.76669411	     66.68979726	    109.52208345	     88.11555862	      0.00000000	      0.00000000
      3.10000000	    -36.70432591	      3.13935777	      5.38932233	     -0.43466324	      0.61124255	     -0.91436760	    101.97139932	    -19.76086527	     11.70291953	    103.80430339	      1.81172687	     39.40547468	      0.00000000	      0.00000000	    103.08367447	    -10.18720331	      1.78430946	    100.10025177	      1.74707898	     33.21909174	      0.00000000	      0.00000000	    -33.35524079	     -2.97814809	     -1.35107052	    -31.00058490	    -55.54667936	     26.77483092	    105.88136345	     88.12858297	      0.00000000	      0.00000000	      4.83620492	    -66.84314082	     64.08595393	    109.64246483	     88.12379975	      0.00000000	      0.00000000
      3.10500000	    -36.62549392	      3.12348425	      5.42063314	     -0.43459887	      0.61141573	     -0.91442084	    101.86708055	    -19.81738978	     11.66848599	    103.80442594	      1.81172901	     39.41823510	      0.00000000	      0.00000000	    103.00001881	    -10.13511948	      1.81057572	    100.09110031	      1.74691925	     33.22862332	      0.00000000	      0.00000000	    -33.42002361	     -2.93031513	     -1.39705813	    -30.76094822	    -55.63015252	     27.08346526	    105.82411792	     88.12705720	      0.00000000	      0.00000000	      5.04017429	    -66.83956262	     64.36790005	    109.61185256	     88.12606637	      0.00000000	      0.00000000
      3.11000000	    -36.66903670	      3.15181394	      5.39442678	     -0.43474937	      0.61135699	     -0.91433683	    101.92647271	    -19.76332900	     11.70180291	    103.78131654	      1.81132568	     39.47849856	      0.00000000	      0.00000000	    103.03428890	    -10.15246159	      1.79829460	    100.07410011	      1.74662254	     33.26898021	      0.00000000	      0.00000000	    -33.36530230	     -2.97447851	     -1.38319894	    -30.77884990	    -55.58916160	     27.04828362	    105.79138901	     88.10054082	      0.00000000	      0.00000000	      5.02796728	    -66.84677530	     64.35432009	    109.58147537	     88.10000703	      0.00000000	      0.00000000
      3.11500000	    -36.69150017	      3.14702353	      5.41180503	     -0.43487682	      0.61132401	     -0.91436216	    101.96748715	    -19.77560456	     11.71359828	    103.78328718	      1.81136007	     39.34033056	      0.00000000	      0.00000000	    103.07006150	    -10.13447363	      1.79489486	    100.06535910	      1.74646998	     33.23038478	      0.00000000	      0.00000000	    -33.35145465	     -2.93252486	     -1.95936250	    -29.52834110	    -56.06688607	     28.32800275	    105.81513791	     88.14166571	      0.00000000	      0.00000000	      2.37391702	    -66.85790892	     61.65280624	    109.69243269	     88.13452571	      0.00000000	      0.00000000
      3.12000000	    -36.64903675	      3.13472932	      5.42280438	     -0.43490828	      0.61142410	     -0.91432181	    101.91085930	    -19.77767008	     11.70195819	    103.77734290	      1.81125632	     39.38498565	      0.00000000	      0.00000000	    103.03103511	    -10.10362080	      1.82596158	    100.05816405	      1.74634441	     33.23010893	      0.00000000	      0.00000000	    -33.38233029	     -2.91794485	     -1.82135832	    -29.74057077	    -55.97600243	     28.14861397	    105.81620153	     88.13369260	      0.00000000	      0.00000000	      3.14822057	    -66.89104513	     62.44345721	    109.68827679	     88.13206958	      0.00000000	      0.00000000
      3.12500000	    -36.68960594	      3.15906040	      5.44137387	     -0.43503195	      0.61136554	     -0.91440738	    101.97416169	    -19.79012678	     11.74744469	    103.77936949	      1.81129169	     39.42045514	      0.00000000	      0.00000000	    103.06739240	    -10.08044318	      1.79148361	    100.05387331	      1.74626952	     33.23424731	      0.00000000	      0.00000000	    -33.36214221	     -2.91076044	     -1.92279766	    -29.73692075	    -55.96915070	     28.10825346	    105.80048393	     88.10357768	      0.00000000	      0.00000000	      2.39319864	    -66.83706711	     61.61508389	    109.65834776	     88.12589219	      0.00000000	      0.00000000
